<svg xmlns="http://www.w3.org/2000/svg" width="144.1" height="113.2" viewBox="0 0 144.1 113.2"><title>behance</title><g fill="#fff"><path d="M7 16.2c15.6 0 30.7-.7 45.7.2s21.3 12.4 18.3 25.5c-1 4.6-2.5 6.4-9.2 10.8 5.4 1.5 9.6 4.3 10.8 9.6s1.9 10.1 1.3 14.9c-1.4 10.8-8.9 17.9-20.3 18.6-14.6.8-29.2.5-43.8.7-3.4 0-2.8-2.3-2.8-4.2v-76.1zm18.6 65.8c8.4 0 16.6.3 24.7-.1 4.5-.2 6.9-4 7.1-9.4s-2-11.1-6.8-11.5c-8.2-.6-16.6-.2-25-.2zm0-33.8c7.9 0 15.3.4 22.6-.2a7.8 7.8 0 0 0 5.6-4.2 15 15 0 0 0 .2-8.9c-.5-1.9-3.1-4.4-4.9-4.6-7.7-.5-15.5-.2-23.5-.2zM95.3 71.4c-.3 7.6 3 12.1 9.8 13.7s14.4-.8 17.6-8.2h13.1c.5 10.8-6.5 18.6-18.7 20.4a53 53 0 0 1-16.4-.1c-17.7-3.1-26.8-20.1-21.4-39a30.5 30.5 0 0 1 44.3-18.2c8.7 4.8 15.4 19.2 13.1 29.2-.2.9-2.5 2-3.8 2.1h-37.6zm-.2-11h26c-.4-7.5-4.4-11.8-11-12.3s-13.6 4.1-15 12.3zM91.7 20.7h30.6a2.6 2.6 0 0 1 2 1.1c2.2 4.2-.3 8.6-4.9 8.6-7.7 0-15.4-.2-23 .1-4.1.2-5.5-1.3-5-5.1.2-1.3.2-2.7.3-4.7z"/></g></svg>