<svg xmlns="http://www.w3.org/2000/svg" width="144.1" height="113.2" viewBox="0 0 144.1 113.2"><title>behance</title><g id="behance"><path d="M7,16.2c15.6,0,30.7-.7,45.7.2S74,28.8,71,41.9c-1,4.6-2.5,6.4-9.2,10.8,5.4,1.5,9.6,4.3,10.8,9.6s1.9,10.1,1.3,14.9C72.5,88,65,95.1,53.6,95.8c-14.6.8-29.2.5-43.8.7C6.4,96.5,7,94.2,7,92.3V16.2ZM25.6,82c8.4,0,16.6.3,24.7-.1,4.5-.2,6.9-4,7.1-9.4s-2-11.1-6.8-11.5c-8.2-.6-16.6-.2-25-.2Zm0-33.8c7.9,0,15.3.4,22.6-.2a7.8,7.8,0,0,0,5.6-4.2,15,15,0,0,0,.2-8.9c-.5-1.9-3.1-4.4-4.9-4.6-7.7-.5-15.5-.2-23.5-.2Z" fill="#fff"/><path d="M95.3,71.4c-.3,7.6,3,12.1,9.8,13.7s14.4-.8,17.6-8.2h13.1c.5,10.8-6.5,18.6-18.7,20.4a53,53,0,0,1-16.4-.1C83,94.1,73.9,77.1,79.3,58.2A30.5,30.5,0,0,1,123.6,40c8.7,4.8,15.4,19.2,13.1,29.2-.2.9-2.5,2-3.8,2.1H95.3Zm-.2-11h26c-.4-7.5-4.4-11.8-11-12.3S96.5,52.2,95.1,60.4Z" fill="#fff"/><path d="M91.7,20.7h30.6a2.6,2.6,0,0,1,2,1.1c2.2,4.2-.3,8.6-4.9,8.6-7.7,0-15.4-.2-23,.1-4.1.2-5.5-1.3-5-5.1C91.6,24.1,91.6,22.7,91.7,20.7Z" fill="#fff"/></g></svg>