<svg xmlns="http://www.w3.org/2000/svg" width="144.1" height="113.2" viewBox="0 0 144.1 113.2"><title>instagram</title><g fill="#fff"><path d="M97.4 36.9a5.8 5.8 0 0 1-5.8-5.9 5.9 5.9 0 0 1 11.8.1 6 6 0 0 1-6 5.8zM90.8 8.5h-38.7a29 29 0 0 0-29.1 29v38.8a29 29 0 0 0 29.1 29h38.7a29 29 0 0 0 29-29v-38.8a28.9 28.9 0 0 0-29-29zm21 68a20.7 20.7 0 0 1-20.7 20.7h-39.3a20.7 20.7 0 0 1-20.7-20.7v-39.3a20.7 20.7 0 0 1 20.7-20.7h39.3a20.7 20.7 0 0 1 20.7 20.7zM71.6 32a24.9 24.9 0 1 0 24.9 24.9 24.9 24.9 0 0 0-24.9-24.9zm0 41a16.1 16.1 0 1 1 16-16.1 16 16 0 0 1-16 16.1z"/></g></svg>