<svg id="Layer_2" data-name="Layer 2" xmlns="http://www.w3.org/2000/svg" width="390.6" height="296.8" viewBox="0 0 390.6 296.8"><title>jennifer-millan-villa</title><path d="M174,53.5c-1.5,10.9-10.4,18.6-20,17.3s-16.1-11.2-14.6-22,10.4-18.5,20-17.2S175.5,42.7,174,53.5Z" transform="translate(-26.7 -31.4)" fill="#fff"/><path d="M417.3,171.2c-.3-9.9-1.4-22.4-8.6-30s-21.2-8.1-28.2-.8c-11.1,11.6-2,25,.9,34.9s5.7,42-23.5,63.2c7.6-30.4,5.5-62.4-3.2-92.3a243.8,243.8,0,0,0-17.4-43.5c-6.4-12.6-12.6-26.1-26.2-32.2C296,63.7,282.4,75.4,276,93.1c-7.9-12.4-18.9-9.3-26.3,4.2-1.9-26.4,10.5-41.1-4.2-46.2s-26,16.7-38.4,24.7c-17.9,11.4-24.3,45.7-3.4,84-8.7,0-15.8-.6-22.9-12.3a80.9,80.9,0,0,1-10-56.1,5.4,5.4,0,0,0-6.4-6.2c-24,5.2-32.6,36-20.2,64.3-31.6-5.3-66.8-2.5-90.8,21C34.7,188.8,24.7,217.9,27,243.7a87.6,87.6,0,0,0,12.5,38.4c24.7,40.5,79.2,55.4,122.8,40.5,64.2-22,73.9-75.4,44-116.1,20.2-1,19.4,13.5,25.1,21.8s14.5,8.9,21.1,0,10.6-28.1,3.5-41.3c-12.3-23-11.5-33.7-5.8-43.4s11.8-11.5,13.4,3-.8,28.1,4.8,34.6,18.4,7.7,24.6-5.9c4.6-10-4.6-19-2.9-42.4,1.3-18.2,11.3-14.5,13.7-8.6s10.2,34.3,1.3,69.4-20.1,64.6-14.2,84.2,21.4,27.7,37.3,24.9c12.8-2.2,24.6-22.9,33.3-31.9,14.5-15,30.5-28.6,41.1-47C411.7,208.1,417.7,189.5,417.3,171.2ZM174.4,232.5c-3,4.2-7.8,7.1-12.8,8.6-10.5,3.1-22.7.3-30.3-7.6s-9.7-20.7-4.5-30.3,18.8-15.9,30.3-18.5C164,197.3,185.2,217.3,174.4,232.5Z" transform="translate(-26.7 -31.4)" fill="#fff"/></svg>