<svg xmlns="http://www.w3.org/2000/svg" width="217.5" height="275" viewBox="0 0 217.5 275"><title>jenn</title><circle cx="108.5" cy="103.7" r="98.8" fill="#fff"/><path d="M154.4 80.5a267 267 0 0 0 1.6-33.8c-.3-10-9-18.2-18.4-18.2a18 18 0 0 0-15.3 2l-1.7-.3a53.7 53.7 0 0 0-17.8-.9c-11.7 1.6-21.8 7.4-28.5 17.3a35.4 35.4 0 0 0-5.6 16.7 28.3 28.3 0 0 0 .3 6.9l.6 3.8h-.1c-1.1 1.6-2.2 3.1-3.2 4.7a43.2 43.2 0 0 0-6.1 17.9c-1.3 11.7 5 22 13 30 2.1 2 4.2 4 6.4 5.9a39 39 0 0 0-3.2 3.6c-6.3 8.2-5.7 18.7.5 26.7 7.4 9.6 19.2 16.4 31.6 15.2s25.1-9.9 29.1-23.1a36.2 36.2 0 0 0 1-6.8v-.7l.9-2 .2-.3 1.8-2c1.8-1.8 3.7-3.6 5.6-5.2 6.2-5.5 6.8-16.1 2.2-22.9l.2-.9c3.1-10.9 3.8-22.4 4.9-33.6z" fill="#f4b58f"/><path d="M137.8 160.1c-5 2.9-10 5.6-15.2 8s-10.2 5.3-15.7 5.4-10.8-2.2-15.7-4.1c-3.3-1.3-9.5-3.3-9.7-7.6-.5-9.6-15.5-9.7-15 0 .9 16.2 19.3 23.4 33.1 26 16.3 3.1 32.2-6.8 45.9-14.7 8.2-4.9.7-17.8-7.7-13z" fill="#8ca43c"/><path d="M197.4 136.9c-1.4-4.6-4.5-7.7-8.5-10.1l-.7-.4a15.9 15.9 0 0 0-.5-4.3 81.3 81.3 0 0 0-3.8-13.9 41.5 41.5 0 0 1 2.7-8.9c3.3-8.2 4.6-16.9-.7-24.5-2.3-3.3-5.8-5.4-8.2-8.6a15.7 15.7 0 0 1-2.4-7.3c-.8-6.1.3-12.5.1-18.6-.5-14.6-6.3-29.9-21.9-33.8a37.4 37.4 0 0 0-9.9-1 10 10 0 0 0-4.5-1 9.4 9.4 0 0 0-6.2 2.1 44.2 44.2 0 0 0-9.2 1.9 25.9 25.9 0 0 0-10.2 6.4 17.9 17.9 0 0 0-7.8-7c-3.7-1.7-8-2.1-12.2-2.2a23.8 23.8 0 0 0-14.6.3 69.4 69.4 0 0 0-13.2 3.2c-7.4 2.4-15.2 7-14.3 16.1a11.9 11.9 0 0 0 .5 2.3 11.3 11.3 0 0 0 .5 9.1 19.6 19.6 0 0 1-4.8 7.8c-5 5.1-11.8 10-13.6 17.2a9.9 9.9 0 0 0 .2 5.5 10.3 10.3 0 0 0 2.2 5.4 31 31 0 0 0 1.2 4.2 1.5 1.5 0 0 0-1.2 1.8l.6 2.4a99.4 99.4 0 0 1-12.7 15.9c-5.2 5.4-7.5 12.3-4.4 19.5a19.3 19.3 0 0 0 1.1 2 9.7 9.7 0 0 0 4.8 8.1 34.9 34.9 0 0 0 5.6 12.6 1.6 1.6 0 0 0-.3 1.1 20.8 20.8 0 0 1-2.4 4.2h-.1l-1.4 1.9h-.2a42.2 42.2 0 0 1-7.5 6.2 28.9 28.9 0 0 0-4.2 3.9 9.9 9.9 0 0 0-1.8 1.5c-4.1 3.3-7.4 6.1-9.4 11.2-.7 1.8 2.2 2.6 2.9.8 1.4-3.6 4.4-6.8 7.7-9.4l.7-.2 1.7-1.4c2.2-1.5 4.9-2 7.2-3.6l1.6-1.3a18.6 18.6 0 0 0 4.5-1.9l2.1-1.5a51.7 51.7 0 0 0 .5 10.8 27.8 27.8 0 0 1 .3 6 42 42 0 0 1-4.6 7.3c-4.8 6.2-8.6 10.7-9.6 18.7 0 .3-.1.6-.1.8a1.4 1.4 0 0 0-.3.9 31.9 31.9 0 0 0 .2 3.5 11 11 0 0 0 .3 4.3c-.6 3 .3 6 1.6 8.9v.2c.9 2 1.9 3.8 2.8 5.6s1.6 3 2.5 4.5l.3.7a1.3 1.3 0 0 0 .6.6 24.1 24.1 0 0 0 6.9 7c1.7 1 3.2-1.6 1.5-2.6a14.7 14.7 0 0 1-2.4-1.8 1.6 1.6 0 0 0-.3-1.2c-2.6-3.3-1.8-8.1-2.4-12a21.4 21.4 0 0 1 2-3.7 9 9 0 0 0 4.2-3.1h.3a10.7 10.7 0 0 0 3.1.4h.6l3.2 2a1.5 1.5 0 0 0 1.1 1.7h.2c.6 2.6 1.3 5.1 2.1 7.7a7.5 7.5 0 0 0-.9 2.2l-.8 3.7a14.7 14.7 0 0 0-.3 2.1 9.5 9.5 0 0 0 .2 3.9 10.3 10.3 0 0 0 4.3 5.8 11 11 0 0 0 2.6 4.5l1.1.9a39.7 39.7 0 0 1 1.9 8.3 1.5 1.5 0 0 0-.2.7c0 .9.1 1.9.1 3a16 16 0 0 1-.4 2.1 95.3 95.3 0 0 1-3.8 10c-.7 1.8 2.2 2.6 2.9.8l1.5-3.6a1.2 1.2 0 0 0 .8-.5 9.1 9.1 0 0 0 1.8-4.8c.6-2 1.2-4 1.7-6.1.1-.5.3-1 .4-1.4a42 42 0 0 0 5.7-7.7 1.4 1.4 0 0 0 0-1.4 11 11 0 0 0 3.6-7.5l.6-7.8a6.2 6.2 0 0 0 0-1.1v-1.8a7.8 7.8 0 0 0-.2-2.3 9.1 9.1 0 0 0 3.8-1.2 8.2 8.2 0 0 0 2.6 2.1 4.3 4.3 0 0 0 2 3.6l.1 2.4a4.2 4.2 0 0 0 .5 2 24.4 24.4 0 0 0-.4 2.5 28.2 28.2 0 0 0 .1 8.1l-.2 1.4a1.6 1.6 0 0 0 .9 1.7v.2c.6 1.8 3.5 1 2.9-.8a21.4 21.4 0 0 1-.6-2.6 40.9 40.9 0 0 1 1.4-6.6c.3-.9.5-1.6.7-2.4a4.6 4.6 0 0 0 2.1-1.5c2.7-3.6 4.2-8.8.1-12.1l-.9-.6a17.6 17.6 0 0 0-5.4-8.8 4.7 4.7 0 0 0-1.3-.8 9.5 9.5 0 0 0-2.1-3.5c-.1-1.6 1.2-3.9 1.8-5.3a44.6 44.6 0 0 0 2.6-8.3 9.1 9.1 0 0 0 .9-1.9c.7-.9 1.6-1.7 1.9-2.9s-1-3.4-2-4.9a1.5 1.5 0 0 0-.7-.6 11.5 11.5 0 0 0-1.7-2.4 24.3 24.3 0 0 0-2.5-4.2c-1.3-1.7-5.1-5.2-5.2-7.2s3.5-6.1 5.3-8.1 5.4-4.9 8-7.6a12.4 12.4 0 0 0 2-15c-2.2-3.7-6.4-6.7-9.6-9.4a12.8 12.8 0 0 0-2.5-1.6 33.2 33.2 0 0 0-1.3-5.2 10.2 10.2 0 0 0-2.2-3.8c-.1-3-.1-6-.1-8.9-.1-6.8-.3-13.6-.2-20.4.1-.2.1-.4 0-.3v-.3l.7-.6 4.6-4.6c5.4-5.7 6.9-12.1 3.8-19.3a6.9 6.9 0 0 0-.8-1.3 54.5 54.5 0 0 1 .4-5.9c.1-1.8.1-3.7 0-5.5s0-2.7-.3-2c1.3-2.9 5.5-6.3 7.5-8.4s2.2-2.1 3.3-3h.5c3.7.3 7.3-.7 11.1-.9l5.5 1.6 3.7.9 1.3.4a14 14 0 0 0 3.4.3c4.9-3.2 10.4-6.1 16.2-7.2l.4.2 5 1.3a19.1 19.1 0 0 1 2.4 3.4 15.3 15.3 0 0 1 7.7 15c-.7 8.2-5.6 14.5-9.2 21.5a24.5 24.5 0 0 0-2.7 12.6 1.3 1.3 0 0 0-.4.8 8.5 8.5 0 0 0 .6 4 16.5 16.5 0 0 0 1.7 4.4 8.1 8.1 0 0 0 3.7 3.1l1.3 1.2a23.1 23.1 0 0 0 4.1 2.9 8 8 0 0 0 .1 1.6 1.4 1.4 0 0 0-.5.6 22.6 22.6 0 0 0-2.3 10.9c0 2.3.8 5 .1 7.3l-.6 1.8a10 10 0 0 0-5 5.9c-7.2 2.4-11.2 11-5 17.4 1.6 1.7-.6 7.5-1.7 10.8a12.5 12.5 0 0 0-3.7 5.3c-1.1 3.5 2.9 8.1 5.1 10.7l1.6 1.7.2.5-.3.6a10.9 10.9 0 0 1-3.4 3.7 16.3 16.3 0 0 0-3.8 3.7c-1.3 1.8 1.1 3.4 2.7 2.7a36.6 36.6 0 0 0 5.6-3 27.6 27.6 0 0 0-2.7 5.3c-2.9 7.5-.4 16.6 5.2 22a7.9 7.9 0 0 0 1.5 3 19.5 19.5 0 0 0 2.8 8.1 3.5 3.5 0 0 0 1.3 1.2l.4.9a40.5 40.5 0 0 0-2.6 10.9c-.3 2.6 3.7 2.5 4 0a35 35 0 0 1 1.5-7.1 10.3 10.3 0 0 0 4.1 2.3l2.4.4a13.5 13.5 0 0 0 .2 2.8 16.4 16.4 0 0 0 2.5 5.5 44.8 44.8 0 0 0 8.6 9.1c6.7 5.7 17.2-1.4 12.6-9.7a61.7 61.7 0 0 1-7.4-23.4c.2-1.7.4-3.5.7-5.2a7.2 7.2 0 0 1 2.2-4 11.6 11.6 0 0 0 2.8-.7 5.1 5.1 0 0 0 5.9.7 20 20 0 0 1 2.9 8.2c.5 2.5 4.3 1.5 3.9-1.1a23.3 23.3 0 0 0-4.9-10.5 5.5 5.5 0 0 0-.5-3.4l-1.5-3v-.2c-.1-4.8 0-10.7-1.9-15.3l2.2-4.7a4.5 4.5 0 0 0 .3-1.1c1.7-2.1 3.6-4.2 5.1-6.3a34.3 34.3 0 0 0 5.7-11.9l1.1-1.1c3.7-4.6 5.6-10.8 3.9-16.5z" fill="#474748"/><path d="M152.6 180.7a10.8 10.8 0 0 1-4.3-6.2 14.8 14.8 0 0 1 2.5-12.4 47.9 47.9 0 0 0 4.3-7.2c2-4 1.2-8.1-.2-12.2s-4.4-9.2-7.2-13.4c-1.7-2.6-2.9-5.6-4.4-8.7a48.9 48.9 0 0 1-3.2 4.6 90.7 90.7 0 0 1-6.9 7.4c-1.8 1.6-2.8 3.6-2 5.9s1.8 5.1 2.8 7.7 1 5-.8 7.2l-4.9 6.2c-2 2.5-1.7 4.9.8 6.9a42 42 0 0 1 4.3 3.8c2.2 2.3 2 4.4-.4 6.4l-4.3 3.4a4.4 4.4 0 0 0-1.5 1.9l1.7-.9c2.3-1.1 4.7-1.9 6.8-3.2s3.8-6.2 1-9.1-3.8-3.4-3-6.3a6.1 6.1 0 0 1 2.3-3.4c3.4-2 3.2-4.9 2.6-8-.2-.9-.7-1.8-.8-2.7a4.6 4.6 0 0 1 .4-1.7c.4.3 1.1.5 1.2 1 1.1 2.5 1.9 5.1 1.3 7.8a11.8 11.8 0 0 1-1.9 3.5 4.9 4.9 0 0 1-1.1.9c-2.7 2.3-2.7 4.4-.2 6.9s3.7 6.3 2.2 9.5-4 3.9-6.6 4.8c-4.4 1.7-8.5 3.6-9.8 8.7-.6 2.4-.6 4.6 1.5 6.4a8.5 8.5 0 0 1 1.2 1.8c-3.7-1.2-6.3-5.4-5.6-8.7a13.9 13.9 0 0 1 2.9-6.2 62.3 62.3 0 0 1 8.8-8.2c1.2-1 1.3-2.1.4-3.1a52.7 52.7 0 0 0-3.9-3.6c-4.5 4.3-10 5.5-15.6 6.5a39.4 39.4 0 0 1-15 0 22.7 22.7 0 0 1-14-9l-6.8-8.9c-5 4.7-6.4 11.1.4 17 2.6 2.3 5.4 4.6 6.6 8.1a5.5 5.5 0 0 1-.2 5l-5.7 9.9c-2.2 3.7-1.7 6.9 1.2 10.1s5.1 5.4 6.7 8.5c2.4 4.9 2.8 10.1-.4 15.1-2 3.1-3.4 6.4-3.3 10.2s1.6 7.5 5.3 9.8l.3.4a2.6 2.6 0 0 1-3.4-.5l-3.4-3.1c-3.1-2.9-4.3-6.6-4.2-10.9a60.4 60.4 0 0 0-.5-10.6c-.6-3.8-3.7-5.5-6.6-6.7.3 3.3.8 6.6 1 9.9.3 6.2-1.9 11.4-5.9 16-2.1 2.4-4.7 4.7-5.1 8.2a21.9 21.9 0 0 1-.7 4.8 24.3 24.3 0 0 1-2.6 5.2c-1.5 2.4-3.5 4.6-3.6 7.6a7.2 7.2 0 0 1-.9 2c-2.2-5.3-1.3-9.9.2-14.5s2-7.7.9-11.8-2.3-6.8-5.1-9.3c-4.6-4.2-5.3-9.3-3.6-15.1 1-3.2 1.6-6.5-.2-9.7a8.1 8.1 0 0 0-7.6-4c-2.4.3-4.3 2.3-5 5.4a14.5 14.5 0 0 0 1.2 9.2c1.1 2.4 1.7 5.2 4.1 6.8l3.7 2.1a8.6 8.6 0 0 1-8.8-1.6 42.2 42.2 0 0 1-13.4-21 44.4 44.4 0 0 1-1.2-14.8c.3-5.8 3.1-10.7 6.6-15.2a63.4 63.4 0 0 0 5.7-8.3 28.3 28.3 0 0 0 3.3-15.6c-.1-1.3.2-2.1 2.1-2.4-.4 3.6-.7 7-1 10.3a20 20 0 0 1-3.5 9.1q-3.5 5.2-7.2 10.3a20.2 20.2 0 0 0-4.1 10.2 83.7 83.7 0 0 0 .6 13.4 25.4 25.4 0 0 0 1.6 5.1 40.7 40.7 0 0 0 11.9 17.8l1.3.8a50.2 50.2 0 0 1-3.2-5.7 21.5 21.5 0 0 1-1.6-10.2c.6-6 5.5-9.7 11.4-7.2a10.2 10.2 0 0 1 6 11.3c-.4 2.3-.8 4.6-1.4 6.8-1.1 4.1.6 7.4 3.3 10 4.6 4.5 6.4 10 6.4 16.1 0 3.2-1.5 6.4-2.2 9.5a38.3 38.3 0 0 0-.9 5.4c2.5-4.3 6.2-7.9 5.9-13.4-.2-3 1.8-5.3 3.7-7.5s2.9-3.5 4.2-5.3c2.6-3.3 3.2-7.3 3.1-11.3s-.9-5.6-1.3-8.4c-.1-.9-.2-1.8-.4-2.9-4.9-4-5.2-9.3-3.7-15.3 1-3.8 2.6-7.5 2-11.6a10 10 0 0 0-.9-3.2c-2-3.9-3.5-7.8-3.4-12.3a9 9 0 0 1 2.4-6c.4-.4 1.1-.5 1.9-.7v.9c-3.9 4.6-2.8 9.6-.6 14.4 1.5 3.3 3.1 6.5 2.4 10.3a84 84 0 0 1-2.2 9 13 13 0 0 0 1.2 10.8 9 9 0 0 0 2.7 2.5 28.4 28.4 0 0 0 4.3 2.6c3.8 1.8 4.7 5.2 5.2 8.8a31.1 31.1 0 0 1-.1 7.2 12.2 12.2 0 0 0 2 8.3v-1.6a18.6 18.6 0 0 1 3.3-12.2c4-5.7 1.6-13.4-2-17.2l-3.9-3.9c-3.8-3.8-4.3-8.2-1.4-12.8 1.7-2.7 3.2-5.5 4.8-8.2s.9-5.5-1.3-8.1-4.7-4.7-6.9-7.2a10.8 10.8 0 0 1 .3-14.4c1.2-1.4 2.1-3.1 3.2-4.6s1.8-1.3 2-2.2a27 27 0 0 0 1-7.2 79.6 79.6 0 0 0-1.3-8.6c0-.3.2-.7.4-1s1 .3 1.1.6a16.2 16.2 0 0 1 1.4 4.6c.2 3.8.1 7.6.1 11.5h.3c3.5-1.9 6.7-8.8 5.8-12.7a2.9 2.9 0 0 0-1-1.6 57.4 57.4 0 0 1-15.5-17.1l-.6-.9-.4-.2c-1.6 4.8-3.1 9.5-.9 14.5a13 13 0 0 0 1.6 2.6c1.9 2.4 1.7 8-.7 10.7v-1.9s.2-3.7.2-5.5a3.9 3.9 0 0 0-.9-2.3c-3.7-4.1-3.7-8.9-2.5-13.9l2.3-7.6s-.2-7.3-.9-10.9a69.2 69.2 0 0 1-.8-9.2c0-.8.6-1.6.9-2.4l.6.2a4.1 4.1 0 0 1 .2 1.3c-.6 4.2.7 8.2 1.3 12.2a32.5 32.5 0 0 1 .5 7.1 8.8 8.8 0 0 0 1.8 5.7 58.6 58.6 0 0 0 12.4 14.2c5.6 4.4 11.8 7.5 19.1 7.3a74.5 74.5 0 0 0 12.4-1c6.4-1.3 11.4-5.2 16.3-9.2s5.7-6.6 7.9-10.3a7.3 7.3 0 0 0 .6-4.3 22.1 22.1 0 0 1 2-11.9c.6-1.4 1.4-2.8 2.2-4.4-10.5-1.3-13-8.5-13.1-17.6-3.9.1-7.5.7-10.8 2.8-1.1.7-2.4 2-3.6.2a1.6 1.6 0 0 1 .2-1.6 12.2 12.2 0 0 1 3.7-1.9c3.7-.8 6.2-3.4 9-5.5l2.1-1.5.4.5-1.4 1.9c3.1-.8 3.2-4.1 5.2-6-4.1-.1-7.8-.2-11.4 1.7a46.8 46.8 0 0 1-6.1 2.4 1.6 1.6 0 0 1-1.4-.4c-1.7-2.1-.7-4.5-.8-6.8 0-.2.6-.5 1-.6 4.9-1.3 9.8-2.9 14.8-3.8 2.2-.4 4.7.3 7.3.5 3.4-5.3 6.9-10.9 5.4-17.9a16.5 16.5 0 0 0-2-5c-3.1-5.1-7.4-8.6-13.5-9.1s-11.5 3.5-12.8 8.4a23.5 23.5 0 0 0-.4 3.6c-2-.5-1.6-1.9-1.4-3.1a12 12 0 0 1 4.2-7.1c3.2-2.6 7-4.3 11-3.8s8 1.8 10.7 5.2 3.7 4.5 4.8 7a20.2 20.2 0 0 1 1.4 8.6c-.2 2.8-1.5 5.6-2.6 8.3a68.2 68.2 0 0 1-3.3 6.4l7.7 5.8a2 2 0 0 0 1.7.1c4.2-2.5 7.3-5.8 7.4-11a26.3 26.3 0 0 0-.7-4 9.8 9.8 0 0 1 0-1.6c.5.3 1.3.5 1.6 1a10.9 10.9 0 0 1-1 11.7c-1.3 1.9-3.7 3-5.1 4.9a4.6 4.6 0 0 1-3.2 2.1c-.5.1-.8 1.3-1.3 2a4.4 4.4 0 0 1-.8 1 12.3 12.3 0 0 0-2.2 2.1l4.9-2.5.4.6-3.4 3 3.8-1c-2.5 2.7-5.7 3.2-8.4 3.7s-5.9-.5-8.9-.8c-.7 10.7 4.6 15.6 15.2 15.6-4.4-2.8-8.1-6-7.4-12.2h1.9c0 8.2 5.6 10.4 12.7 11.1-2.9 3-6.2 3.7-9.8 3.2-.9 1.8-1.7 3.4-2.4 5.1-2.9 6.9-1.6 13.4 1.9 19.7s6 10.3 8.6 15.6c1.8 3.8 3 7.9 1.9 12.1a34.6 34.6 0 0 1-2.7 6.6c-1.5 3.1-3.6 6.1-4.8 9.3a10.6 10.6 0 0 0 1.5 9.9l1.5 2.6zm-62.6-42.3a26.8 26.8 0 0 1-.9 4.6c-1.5 4-3.2 8.1-8.2 9l-.4.3c-1.6 1.6-1.7 2.7-.3 4.7l5.7 7.8a20.3 20.3 0 0 0 16.8 8.9 71.3 71.3 0 0 0 13.7-1.3c2.9-.5 5.7-2 8.4-3.3s2-1.8.9-3.5a5.2 5.2 0 0 1 .2-6.2 71.8 71.8 0 0 1 4.9-5.9c1.7-1.9 2.3-3.8 1.1-6.2s-2.5-5.5-3.8-8.2c-.3-.7-.5-1.5-.7-2.1-12.3 6.4-24.6 7.2-37.4 1.4zm29.5-66.1l7.1-2.5c2.6-.8 5.2-1.9 8.2-1.1a3.5 3.5 0 0 0 4.6-2.8c.1-.4-.4-1.3-.6-1.3a33.9 33.9 0 0 0-6.5.1c-2.9.5-5.6 1.5-8.5 2.1-5.1 1.2-4.4 1.6-4.3 5.5zm22 6.3v.2c1.3-.6 2.8-.9 3.7-1.9a37.6 37.6 0 0 0 3.7-5.1l-8.7-1.7c-.5-.1-1.1.6-1.6.9l.2.3h1.1l-4 5.2.5.4 1.8-1.3a16.4 16.4 0 0 1 1.7-1.3 6.1 6.1 0 0 1 1.5-.4l.2.6-3.3 2.8v.2l5.7-2.7v.4zm4.1-9.2l.2-.2-4.2-2.9-1 1.7zM175.4 201.7a2.8 2.8 0 0 1-.5.7c-5.9 4.3-6.8 10.5-6.6 17.1s3.1 9.6 5.8 13.9c.9 1.4 1.6 2.8 2.3 4.3l-.5.3-5.8-8.9c-4.1-6.5-4.2-13.4-1.8-20.5 1.1-3.1 2.5-5.8 5.6-7.5-1.9-1.5-3.8-2.8-5.4-4.3s-4.2-4.9-4-8.4c0-.5.5-.9.7-1.4s.7.8.8 1.3a10.9 10.9 0 0 0 4.6 7.6l9.7 6.8 4.1 3.1.5-.2c-1.2-3.9-2.2-7.9-3.8-11.6s-3.2-5.2-4.8-7.9a23.5 23.5 0 0 1 .5-25.6 78.6 78.6 0 0 0 6-11c2.3-5.4 2-10.8-1.9-15.7a69.5 69.5 0 0 0-6.9-7.5c-2.7-2.6-5.6-5.4-5.7-9.6a20.5 20.5 0 0 1 .8-4.7c.1-.3.6-.4.9-.6l.4.9a.8.8 0 0 1-.1.5c-1.9 4.8 1.2 8 3.9 11.1s4.2 3.8 5.9 5.9 5.8 7.4 5.7 12.4a27.3 27.3 0 0 1-4.4 13.8c-2.5 3.9-5.3 7.7-6.4 12.3s-.1 11.6 2.7 16.9c.5-3.1.6-6.3 1.5-9.3 1.8-5.9 5.1-11 8.4-16.1a74.8 74.8 0 0 0 6.8-12.6c1.9-4.6 2-9.5-1.3-13.8l-6.9-8.8a17.6 17.6 0 0 1-3.5-15.8c1.4-5.6 3.3-11.1 5-16.6a18.5 18.5 0 0 0 0-12.5 15.5 15.5 0 0 0-4.8-7.1 76.9 76.9 0 0 1-6.4-5.4c-4.8-4.6-4.9-10.1-3.3-16.2s2.7-14.4.6-21.6a22.6 22.6 0 0 0-5.7-9.6c-2-2-3.6-4.4-5.9-5.9-5.7-3.7-11.5-7.4-18.4-8.4a26.2 26.2 0 0 0-12.8 1.7c-4.4 1.6-8.7 3.6-13 5.3a4.1 4.1 0 0 1-1.6-.1c.2-.6.3-1.4.7-1.6a66.1 66.1 0 0 1 8.1-3.7c3.9-1.4 7.9-2.5 11.9-3.4a19.3 19.3 0 0 1 13.1 1.6c4.8 2.3 9.8 4.4 13.8 7.6 8.8 7 14.1 16 12.7 27.8-.5 4.6-1.2 9.1-2.1 13.6s1.1 9.5 5.2 13a46.1 46.1 0 0 1 8.4 8.5c3.7 5.2 3.1 11 1.3 16.8s-3.5 11-5 16.6.2 9.5 2.9 13.6a50 50 0 0 0 4.6 5.4c4.6 5.1 6.4 11 4.7 17.7a18.2 18.2 0 0 1-1.8 4.4c-2.5 4.3-5.3 8.6-7.7 13s-4.9 8.6-6.5 13.1a17.6 17.6 0 0 0 1.3 15.2 31.1 31.1 0 0 1 3.6 10.8c.5 3.1 1.5 6.2 2.2 9.3a23.5 23.5 0 0 1 .5 3.5c0 .3-.3.7-.6 1.5l-.9-2.4c-.4 1.1-.7 2-1.2 2.9s-.7.7-1.1 1-.8-.9-.9-1.4a10 10 0 0 1 .2-2.7c.9-4.7-1.6-7.8-5.1-10.4zM109 13.8a5.4 5.4 0 0 1-1.7-.8c-4.7-5.1-10.8-6.5-17.4-7.3-9-1-17.2 1-25.1 5-4.3 2.2-8.3 5-10.3 9.6-1 2.2-1.1 4.7-1.4 7.2a52.9 52.9 0 0 0 0 6.8 11.2 11.2 0 0 1-4.1 9.1q-4.6 4.1-9.1 8.3c-3.2 3-5.4 6.5-5.5 11.1a20.4 20.4 0 0 0 2.5 10.2c3.1 5.7.5 12.5-3 16.3l-8.1 8.4s-4.3 7-5.5 10.9a10 10 0 0 0 .1 5.1 37.4 37.4 0 0 0 7.9 16c2.9 3.3 5.5 7.3 3.6 12a17.5 17.5 0 0 1-4.7 6.1c-2.9 2.6-6.3 4.7-9.4 7.1a55.3 55.3 0 0 0-10.2 10c-1 1.3-1.4 3-2.1 4.5l.4.2 1.8-2.6c4.1-5 9.5-8.2 14.9-11.5s8.7-5.2 12.8-8.2 5.7-8.5 4.6-13.9c-.7-3.5-2.3-6.9-3.7-10.2-2-5.1-2.3-10 .7-14.7.8-1.2 1.6-2.4 3.6-2.2l-1 1.4c-3.4 3.8-3.6 8.2-2.1 12.7s2.9 6.4 3.7 9.7c1.6 6.1 1.6 12.3-3.2 17.1a48.3 48.3 0 0 1-9.7 7c-6.3 3.8-13.1 7.2-18.3 12.7s-5.9 9.5-3.8 15.3c.6 1.6 1.6 3.1 2.2 4.9-1.9-.9-2.5-2.9-3.8-4.6l-.2 1.9h-.2a4.6 4.6 0 0 1-.4-1.3c-.1-4.6-.9-9.2.1-13.7a17.4 17.4 0 0 1 4-7.8 73.6 73.6 0 0 1 7.6-7l7.1-5.3s4.3-4.2 6.4-6.4 1.9-5.7.1-8.5-3.8-5.2-5.4-8a59.1 59.1 0 0 1-3.6-7.3 25.7 25.7 0 0 1-1.4-4.8c-1.2-5.6.7-10.5 3.8-14.8l10.2-11.7s4.8-9.5 2.1-15-3.4-9-1.6-13.8a26.3 26.3 0 0 1 5.1-7.9 90.6 90.6 0 0 1 9.1-8.4c3.6-3 4.2-6.9 3.9-11.1s.1-10.6 3.4-15a26 26 0 0 1 5.5-5c6.2-4.7 13.5-6.9 21-7.6a40.6 40.6 0 0 1 21.7 3.3 15.2 15.2 0 0 1 6.5 6zM68.1 74.2c2.3-1.6 4.6-3.1 6.8-4.8s3.3-3.1 5-4.5a1.8 1.8 0 0 0 .6-2.4 35.3 35.3 0 0 1-2.3-14c.3-5.1 3-8.5 6.8-11.6s10.1-4 15.6-3.5c3.1.3 6.1 1.4 7.7 4.5a4.4 4.4 0 0 1 .2 1.6 4.1 4.1 0 0 1-1.2-.7 10.7 10.7 0 0 0-9.3-4c-2.9.2-6 .4-8.7 1.5-7.2 3-10.4 9.2-9 17 .6 3.2 1.5 6.4 2.3 9.4h5.6a2.2 2.2 0 0 0 1.6-1.1l11.4 4a2.1 2.1 0 0 1 1.5 2.7 8 8 0 0 0 .1 2.8c.3 1.9-.1 2.3-2 2.1a39 39 0 0 1-9.5-2 41.8 41.8 0 0 0-4.2-1c-1.9-.5-3.1 0-3.5 2a8.6 8.6 0 0 1-1.4 2.2c-.1-.6.6-1.9.5-2.4s-.1-1-.1-1.6l-9.2 4.4a31.4 31.4 0 0 1-9.3 2.8c.1-.4 0-.7.2-.9 1.9-2.1 1.9-3.1.9-5.9a65.3 65.3 0 0 1-3-9.1c-.8-3.4.6-6.5 2.4-9.5s2.9-4.9 5.5-6.5a5.8 5.8 0 0 1 1.7-.4 4.9 4.9 0 0 1-.8 1.5c-4.8 4-9.3 12.3-5.4 19.3a23.1 23.1 0 0 1 1.8 4.3 26.1 26.1 0 0 1 .7 3.8zm32.9-6.3c-1.4-.5-2.7-1.1-4.1-1.4a62.1 62.1 0 0 0-9.5-2.3c-4.2-.4-4.2-.2-3.3 3.8h.1l17 3.2zm-28.2 5.2c3.7-.2 5.9-3.6 9.3-4.5l-.8-2.9zM54.5 167.3c-2.5 1.3-5 2.1-6.9 3.7a15.2 15.2 0 0 0-5.7 10.8c-.1 1.2-.1 2.4-.3 3.6-.8 4.9.5 9.5 2 14.5l1.3-2.6c1.9-4 4-7.9 5.7-12.1 1.1-2.6 1.4-5.5 2.2-8.2a6.3 6.3 0 0 1 .8-1.4c.2.5.7 1 .6 1.5a61.7 61.7 0 0 1-2.3 9.3c-1.6 4.1-3.7 8-5.6 12a8.2 8.2 0 0 0-.2 6.2 39.8 39.8 0 0 0 4.9 11.2 69.1 69.1 0 0 1 8.4 17.5l.2.5h.5a29 29 0 0 0 0-3.9 89.3 89.3 0 0 0-1.5-9c-.4-1.7-1.5-3.2-2.1-4.9a26.1 26.1 0 0 1-1.5-13.7 4.3 4.3 0 0 1 2.6-3.8 11.8 11.8 0 0 1-.2 2.3c-2 5.8-1.2 11.4 1.5 16.8a23.1 23.1 0 0 1 1.7 5.2c1.4 6.3.9 12.6-.3 18.9-.1.6-.9 1.5-1.3 1.4s-1.1-1-.9-2c.7-4.2-.4-8.2-1.9-12.1s-5.3-9.7-7.9-14.6-6-12.1-7.5-18.7-1.6-14.5 1.9-21.3a13.3 13.3 0 0 1 9.7-7.5 8.2 8.2 0 0 1 2.1.4zM143.8 231.4c1.2-2.4 2.5-4.7 3.4-7.1a32.2 32.2 0 0 0 2-16.1c-.6-5.1-3.4-8.4-6.6-11.8-1.4-1.5-2.7-3-4-4.6a1.9 1.9 0 0 1-.5-1.1 13.6 13.6 0 0 1 .3-2.1l1.2 1.5a62.4 62.4 0 0 0 4.4 5.2c4 3.9 6.6 8.1 7.2 13.9a33.7 33.7 0 0 1-1.2 12.2c-.9 3.5-2.8 6.7-4.5 9.9s-4.6 7.7-6.9 11.5l-1 1.4-1.7-.7 2.1-3.2c3.9-5.9 4.3-12.3 3.1-19s-4.7-10.9-7.8-16-5-12-2.3-18.6a7.7 7.7 0 0 1 2.5-2.7c.5-.4 1.3-.3 2.4-.4-.5.8-.6 1.1-.8 1.2-3.9 2.8-3.9 6.5-3.4 10.8s3.2 9.1 6 13.1c4.7 6.8 6.3 14.3 5.5 22.4zM85.1 117.4c3.4 1.5 6.3 3.2 9.4 4.2 7 2.4 14.1 1.8 21.2.3a39.6 39.6 0 0 0 13.1-5.1c1-.6 1.9-1.4 2.9-2.1l1.7-.9c.1.8.6 1.9.2 2.5a21.2 21.2 0 0 1-4 5c-4.2 3.5-8.7 6.3-14.4 7.2-9.2 1.5-17.7.3-25.2-5.5-1.9-1.4-3.9-3-4.9-5.6zm44 1.7a52.3 52.3 0 0 1-32.2 5.6 28.9 28.9 0 0 0 32.2-5.6zM160.1 176.8c1.4-2.6 3-5.1 4.2-7.7s.8-3.6 1.3-5.3a11.5 11.5 0 0 1 .8-1.9l.9.2a17 17 0 0 1-.2 3.7 38.6 38.6 0 0 1-4.6 10c-3.8 6.1-5.2 12.6-1.8 19.5s3.6 12.6.8 19a14.6 14.6 0 0 1-1.1 1.8l-.4-.2c.5-2.7 1.2-5.4 1.6-8.1a17.4 17.4 0 0 0-2-11.1c-3-5.5-2.9-11.1-1.1-16.8a3.8 3.8 0 0 0-.5-3.8c-2.3-3.2-2-6.8-1.1-10.5s3.7-7.2 6.2-10.5 4.3-6.9 3.8-11.2a13.8 13.8 0 0 0-1.4-3.4l-.5-1.6c.7.1 1.7 0 2 .4a9.2 9.2 0 0 1 1.6 7.5c-.9 4.6-3.4 8.4-6.3 11.9a18.3 18.3 0 0 0-4.3 11.1 9.8 9.8 0 0 0 2.1 7zM66.2 84c1.4-1.6 3.1 0 4.9-.8l-7.8-3.4.3-.6 6.6 2.2.2-.3-.6-.6-.8-1.1 3.6 1.3-.9-1.2 1.3-.5-1.4-1.1.2-.5 2.4.8-.6-1.8 4.8 2.8.3-.5-3.6-2.2.3-.6 6.9 2.2-3.5-3.5.3-.4 2.7 1.4c2.3 1 4.9 1.6 6.9 2.9s5.7 1.3 8.2 2.7a25.1 25.1 0 0 1 3 1.7c.3.2.2 1 .3 1.5s-1.9.6-2.6.3a22 22 0 0 1-3.9-2.3c-2.3-1.5-4.9-1.5-7.5-1.1a34.2 34.2 0 0 0-6 1.7c-1.1.4-2 1.5-3 1.7-3.6.4-7.4 2.1-11-.7zM60.8 119.5a10.4 10.4 0 0 1-4.4-7.2 34.8 34.8 0 0 0-1-4.7 21.6 21.6 0 0 1 1-17.2c1.5-3 3.3-5.7 5.1-8.5.2-.4 1-.5 1.5-.7l.5.6-1.5 2.5c-3 4.3-5.5 8.8-5.9 14.2a54.5 54.5 0 0 0 .3 6.6h.6l1.7-4.3c2.3-5 6.2-8.5 10.4-11.8a15.5 15.5 0 0 1 1.8-1.4c.3-.2.9-.1 1.3-.1s0 1.1-.2 1.4a12.7 12.7 0 0 1-2.2 2 29.8 29.8 0 0 0-9.4 10.4c-2.1 4-3.2 8.3-1.1 12.9a39.2 39.2 0 0 1 1.5 5.3zM165.5 248.3a66.5 66.5 0 0 1-5.1-5 93.4 93.4 0 0 1-6.7-8.9c-2.6-4-2.3-8.6-2.1-13.2 0-.3.5-.6.7-.9s.7.7.7 1a20.9 20.9 0 0 1 0 3.2c-.4 5 1.7 9.3 4.6 13.1s5.2 6.2 7.9 9.2l.7 1zM119 108.2l-4.9.7c-3.5.3-6.9 1.4-10.4.2-.4-.2-1-.2-1.3-.5a7.8 7.8 0 0 1-.9-1.7 5.2 5.2 0 0 1 1.7.1c2.6 1.2 5.2.7 7.9.5h7.8zM118.2 106.1l1.9-1.2c.3-1.2-1.5-2.6.5-4.1.5 1.7 1.1 3.2 1.4 4.8s-.5 1-.9 1a16.6 16.6 0 0 1-2.8 0zM105 103.8a19.3 19.3 0 0 1-.5-3.3 5 5 0 0 1 3.2-4 1.2 1.2 0 0 1 1 .3 1 1 0 0 1-.2 1c-2.3.9-2.5 3-2.8 5-.1.2-.2.3-.7 1zM118.1 97.5c-2.2-.1-3.1-1.5-3.8-3.1a.9.9 0 0 1 1.4-.9c.9 1.3 1.6 2.7 2.4 4z"/><path d="M119.5 72.3c-.1-3.9-.8-4.3 4.3-5.5 2.8-.6 5.6-1.6 8.5-2.1a33.9 33.9 0 0 1 6.5-.1c.2 0 .7.9.6 1.3a3.5 3.5 0 0 1-4.6 2.8c-2.9-.8-5.5.2-8.2 1.1zM145.6 69.4l-5.1-1.4 1-1.7 4.2 2.9zM101 67.9l.3 3.4-17-3.2h-.1c-.9-4-.9-4.2 3.3-3.8a62.1 62.1 0 0 1 9.5 2.3c1.3.2 2.6.8 4 1.3zM72.8 73.1l8.6-7.5.8 2.9c-3.5 1-5.7 4.4-9.4 4.6z" fill="#232020"/><path d="M129.1 119.1a28.9 28.9 0 0 1-32.2 5.6 52.3 52.3 0 0 0 32.2-5.6z" fill="#fff"/></svg>