<svg id="vimeo" xmlns="http://www.w3.org/2000/svg" width="144.1" height="113.2" viewBox="0 0 144.1 113.2"><title>vimeo</title><path d="M80.2,34C83.4,18.7,97.7,3.9,117.5,9.8c4.6,1.4,7.1,4.8,8.5,9.3a31.7,31.7,0,0,1-.9,21.7,113.3,113.3,0,0,1-8.8,17.8c-8.8,13.8-18.4,26.8-31,37.4-4.5,3.8-9.4,6.9-15.2,8.3s-9.2,0-12.8-3.7a34.7,34.7,0,0,1-8-15c-3.2-11.2-6.1-22.5-9.4-33.7a69.8,69.8,0,0,0-5.2-12.3c-2.1-4-4.3-4.3-8.2-2a12,12,0,0,0-2.4,1.5c-2.2,1.9-3.7,1.2-5.4-1-2.8-3.8-2.9-3.7.6-6.8L36.7,16.1a29.7,29.7,0,0,1,4.6-3.3C50.6,6.9,59.2,9.5,62.6,20c2.1,6.7,2.7,13.9,4.2,20.8s3.1,14.6,5,21.8c.8,2.9,1.7,6.4,5.1,7S82,67,83.5,64.7c3.7-5.6,6.9-11.6,10.3-17.4a14.2,14.2,0,0,0,1-2.9c2.1-8.3-1.9-12.6-10.3-11.2Z" fill="#fff"/></svg>